<svg width="184" height="66" fill="none" xmlns="http://www.w3.org/2000/svg">
  <path d="M94.408 17.23v1.804h-8.861V7.22h8.532v1.805H87.68v3.117h5.743v1.805H87.68v3.282h6.728ZM105.401 10.01v9.024h-1.969v-1.148c-.328.492-.821.82-1.313.984-.492.164-1.148.328-1.641.328-.82 0-1.64-.164-2.297-.492-.656-.328-1.149-.985-1.64-1.64-.493-.657-.657-1.478-.657-2.462 0-.985.164-1.805.656-2.461a7.778 7.778 0 0 1 1.641-1.641c.492-.329 1.313-.657 2.133-.657.657 0 1.149.164 1.641.328.492.165.985.493 1.313.82v-.984h2.133Zm-2.954 6.563a2.715 2.715 0 0 0 .821-1.97c0-.82-.328-1.476-.821-1.968a2.716 2.716 0 0 0-1.969-.82c-.82 0-1.477.328-1.969.82a2.717 2.717 0 0 0-.82 1.969c0 .82.328 1.477.82 1.969.492.492 1.149.82 1.969.82.821-.164 1.477-.328 1.969-.82ZM108.683 18.87c-.656-.164-1.312-.492-1.641-.657l.821-1.64c.328.328.82.492 1.477.656.492.164 1.148.164 1.641.164 1.312 0 1.805-.328 1.805-.985 0-.328-.164-.492-.493-.656-.328-.164-.656-.328-1.476-.328-.821-.164-1.313-.164-1.805-.328-.493-.164-.821-.328-1.149-.82-.328-.329-.492-.821-.492-1.477 0-.82.328-1.477 1.148-1.97.657-.492 1.641-.82 2.954-.82.656 0 1.313 0 1.805.164.656.164 1.148.328 1.477.492l-.821 1.641c-.82-.492-1.641-.656-2.625-.656-.657 0-1.149.164-1.477.328-.328.164-.492.492-.492.656 0 .329.164.657.492.657.328.164.82.328 1.641.328.656.164 1.313.164 1.805.328s.82.328 1.148.82c.329.493.493.985.493 1.642 0 .82-.328 1.476-1.149 1.969-.656.492-1.641.82-2.953.82-.657-.164-1.313-.164-2.134-.328ZM122.138 18.542c-.328.164-.492.328-.821.492-.328.164-.656.164-1.148.164-.985 0-1.805-.328-2.298-.82-.492-.492-.82-1.313-.82-2.297v-4.267h-1.477v-1.64h1.477V8.04h2.133v2.133h2.297v1.641h-2.461v4.267c0 .492.164.82.328.984.164.164.493.328.985.328s.82-.164 1.148-.328l.657 1.477ZM94.407 35.279v1.805h-8.86V25.269h8.532v1.805h-6.4v3.118h5.744v1.805H87.68v3.282h6.727ZM97.69 36.1c-.657-.657-1.149-1.641-1.149-2.954v-5.251h1.97v5.087c0 .82.163 1.313.491 1.805.329.492.985.656 1.641.656.657 0 1.149-.164 1.641-.656.328-.328.492-.985.492-1.805v-5.087h1.969v5.25c0 1.314-.328 2.298-1.148 2.954-.657.657-1.805 1.15-3.118 1.15s-2.133-.33-2.79-1.15ZM112.62 27.895v1.97h-.492c-.82 0-1.477.163-1.969.655-.492.493-.656 1.15-.656 2.134v4.43h-2.133v-9.025h1.969v1.313c.82-.985 1.805-1.477 3.281-1.477ZM115.903 36.592c-.656-.328-1.313-.985-1.641-1.641-.328-.657-.656-1.477-.656-2.462 0-.82.164-1.64.656-2.297.328-.656.985-1.312 1.641-1.64.657-.329 1.477-.657 2.462-.657.984 0 1.805.164 2.461.656.656.329 1.313.985 1.641 1.641.328.657.656 1.477.656 2.297 0 .821-.164 1.641-.656 2.462-.328.656-.985 1.313-1.641 1.64-.656.329-1.477.657-2.461.657-.821-.164-1.641-.328-2.462-.656Zm4.431-1.97c.492-.492.82-1.148.82-1.968 0-.82-.328-1.477-.82-1.97a2.72 2.72 0 0 0-1.969-.82 2.72 2.72 0 0 0-1.97.82 2.718 2.718 0 0 0-.82 1.97c0 .82.328 1.476.82 1.969a2.72 2.72 0 0 0 1.97.82c.82-.164 1.476-.328 1.969-.82ZM132.64 28.551c.657.329 1.313.985 1.641 1.641.328.657.657 1.477.657 2.462 0 .984-.164 1.64-.657 2.46-.328.657-.984 1.314-1.641 1.642-.656.328-1.476.492-2.297.492-1.149 0-2.133-.328-2.954-1.149v4.43h-2.133V28.224h1.969v1.149c.329-.492.821-.82 1.313-.985.492-.164 1.149-.328 1.641-.328.985-.164 1.641.164 2.461.492Zm-.656 6.072c.492-.493.82-1.149.82-1.97 0-.82-.328-1.476-.82-1.968a2.717 2.717 0 0 0-1.969-.821c-.492 0-.985.164-1.313.328-.328.164-.656.492-.984.985-.328.492-.329.984-.329 1.477 0 .492.165.984.329 1.476.164.493.492.82.984.985.328.164.821.328 1.313.328.82-.164 1.477-.328 1.969-.82ZM145.274 33.146h-7.055c.164.656.492 1.148.984 1.64.492.329 1.149.657 1.969.657.985 0 1.805-.328 2.462-.984l1.148 1.312c-.328.493-.984.82-1.477 1.149-.656.328-1.312.328-2.133.328-.984 0-1.805-.164-2.625-.656-.821-.328-1.313-.985-1.805-1.641-.328-.657-.657-1.477-.657-2.462 0-.82.165-1.64.657-2.297.328-.656.984-1.312 1.641-1.64.656-.329 1.476-.657 2.461-.657.82 0 1.641.164 2.297.656.657.329 1.149.985 1.641 1.641.328.657.657 1.477.657 2.462-.165.164-.165.328-.165.492Zm-6.235-2.954c-.492.328-.82.985-.82 1.641h5.086c-.164-.656-.328-1.148-.82-1.64-.492-.329-.985-.657-1.641-.657-.82.164-1.313.328-1.805.656ZM87.68 45.124v3.61h5.743v1.805H87.68v4.43h-2.134V43.155h8.533v1.805h-6.4v.164ZM97.36 54.642c-.656-.329-1.313-.985-1.64-1.641-.329-.657-.657-1.477-.657-2.462 0-.82.164-1.64.656-2.297.329-.656.985-1.313 1.641-1.64.657-.329 1.477-.657 2.462-.657.984 0 1.805.164 2.461.656.656.328 1.313.985 1.641 1.641.328.656.656 1.477.656 2.297 0 .82-.164 1.641-.656 2.462-.328.656-.985 1.312-1.641 1.64-.656.329-1.477.657-2.461.657-.82-.164-1.641-.328-2.462-.657Zm4.431-1.97c.492-.492.82-1.148.82-1.969 0-.82-.328-1.476-.82-1.969a2.72 2.72 0 0 0-1.97-.82c-.82 0-1.476.328-1.968.82a2.717 2.717 0 0 0-.82 1.97c0 .82.327 1.476.82 1.968.492.493 1.148.82 1.969.82.82-.163 1.476-.327 1.969-.82ZM107.698 54.15c-.656-.657-1.149-1.642-1.149-2.954v-5.251h1.969v5.087c0 .82.164 1.312.493 1.805.328.492.984.656 1.641.656.656 0 1.148-.164 1.64-.656.329-.329.493-.985.493-1.805v-5.087h2.133v5.25c0 1.313-.328 2.298-1.149 2.954-.656.657-1.805 1.149-3.117 1.149-1.313 0-2.298-.328-2.954-1.149ZM125.42 46.93c.657.656.985 1.64.985 2.953v5.086h-2.133v-4.922c0-.82-.164-1.313-.493-1.805-.328-.328-.82-.656-1.641-.656-.82 0-1.312.164-1.805.656-.492.492-.656 1.149-.656 1.969v4.594h-2.133v-9.024h1.969v1.148c.328-.492.82-.656 1.313-.984.492-.164 1.148-.328 1.805-.328 1.148.328 2.133.656 2.789 1.312ZM137.891 42.663v12.471h-1.969v-1.148c-.329.492-.821.82-1.313.984-.492.164-1.149.328-1.641.328-.82 0-1.641-.164-2.297-.492-.657-.328-1.313-.985-1.641-1.641-.328-.656-.656-1.477-.656-2.461 0-.985.164-1.641.656-2.462.328-.656.984-1.312 1.641-1.64.656-.329 1.477-.657 2.297-.657.656 0 1.149.164 1.641.328s.984.493 1.313.985v-4.595h1.969Zm-3.282 10.338c.328-.164.656-.492.984-.985.165-.492.329-.984.329-1.476 0-.493-.164-.985-.329-1.477a1.479 1.479 0 0 0-.984-.985c-.328-.164-.821-.328-1.313-.328s-.984.164-1.312.328c-.329.164-.657.492-.985.985-.164.492-.328.984-.328 1.477 0 .492.164.984.328 1.476.164.493.492.82.985.985.328.164.82.328 1.312.328.492 0 .821 0 1.313-.328ZM149.542 46.109v9.025h-1.969v-1.149c-.329.492-.821.82-1.313.985-.492.164-1.149.328-1.641.328-.821 0-1.641-.164-2.297-.492-.657-.328-1.149-.985-1.641-1.641-.493-.657-.657-1.477-.657-2.462 0-.984.164-1.805.657-2.46a7.755 7.755 0 0 1 1.641-1.642c.492-.328 1.312-.656 2.133-.656.656 0 1.148.164 1.641.328.492.164.984.492 1.312.82v-1.148h2.134v.164Zm-2.79 6.563a2.719 2.719 0 0 0 .821-1.969 2.72 2.72 0 0 0-.821-1.969 2.718 2.718 0 0 0-1.969-.82c-.82 0-1.477.328-1.969.82a2.72 2.72 0 0 0-.821 1.97c0 .82.329 1.476.821 1.968.492.493 1.149.82 1.969.82.82-.163 1.477-.327 1.969-.82ZM157.745 54.642c-.328.164-.492.328-.82.492-.328.164-.657.164-1.149.164-.984 0-1.805-.328-2.297-.82-.492-.493-.821-1.313-.821-2.298v-4.266h-1.64v-1.64h1.476V44.14h2.134v2.133h2.461v1.64h-2.461v4.267c0 .492.164.82.328.985.164.164.492.328.984.328.493 0 .821-.164 1.149-.328l.656 1.477ZM159.55 44.303c-.328-.163-.328-.492-.328-.82 0-.328.164-.656.328-.82.329-.164.657-.328.985-.328.328 0 .656.164.984.328.329.164.329.492.329.82 0 .328-.164.657-.329.985-.328.328-.656.328-.984.328-.492-.164-.821-.328-.985-.492Zm-.164 1.806h2.133v9.024h-2.133v-9.025ZM165.787 54.642c-.657-.329-1.313-.985-1.641-1.641-.329-.657-.657-1.477-.657-2.462 0-.82.164-1.64.657-2.297.328-.656.984-1.313 1.641-1.64.656-.329 1.476-.657 2.461-.657.984 0 1.805.164 2.461.656.657.328 1.313.985 1.641 1.641.328.656.656 1.477.656 2.297 0 .82-.164 1.641-.656 2.462-.328.656-.984 1.312-1.641 1.64-.656.329-1.477.657-2.461.657-.821-.164-1.641-.328-2.461-.657Zm4.43-1.97c.492-.492.82-1.148.82-1.969 0-.82-.328-1.476-.82-1.969a2.718 2.718 0 0 0-1.969-.82c-.821 0-1.477.328-1.969.82a2.72 2.72 0 0 0-.821 1.97c0 .82.329 1.476.821 1.968.492.493 1.148.82 1.969.82.82-.163 1.477-.327 1.969-.82ZM183.015 46.93c.657.656.985 1.64.985 2.953v5.086h-2.133v-4.922c0-.82-.164-1.313-.492-1.805-.329-.328-.821-.656-1.641-.656-.821 0-1.313.164-1.805.656-.493.492-.657 1.149-.657 1.969v4.594h-2.133v-9.024h1.969v1.148c.328-.492.821-.656 1.313-.984.492-.164 1.149-.328 1.805-.328 1.149.328 1.969.656 2.789 1.312Z" fill="#282828"/>
  <path d="M54.37 27.895H12.364c-1.477 0-2.79.657-3.774 1.641L.713 38.069l8.533-.82h42.007c1.477 0 2.79-.657 3.774-1.642l7.876-8.532-8.532.82Z" fill="url(#a)"/>
  <path d="M61.098 27.895H54.37C52.237 17.393 43.048 9.681 31.89 9.681a22.685 22.685 0 0 0-18.542 9.517l-7.876-5.743C11.379 5.251 20.896 0 31.726 0c15.26 0 28.223 10.666 31.505 24.942.492 1.476-.656 2.953-2.133 2.953Z" fill="url(#b)"/>
  <path d="M2.354 37.248H9.08c2.133 10.502 11.322 18.214 22.48 18.214 7.713 0 14.44-3.774 18.542-9.517l7.713 5.743c-5.908 8.04-15.425 13.455-26.255 13.455A32.67 32.67 0 0 1 .056 40.038c-.328-1.477.82-2.79 2.298-2.79Z" fill="url(#c)"/>
  <defs>
    <linearGradient id="a" x1="9.165" y1="32.52" x2="74.21" y2="32.52" gradientUnits="userSpaceOnUse">
      <stop offset=".007" stop-color="#1ACEC4"/>
      <stop offset="1" stop-color="#1699B4"/>
    </linearGradient>
    <linearGradient id="b" x1="25.175" y1="6.692" x2="52.141" y2="32.749" gradientUnits="userSpaceOnUse">
      <stop offset=".007" stop-color="#1ACEC4"/>
      <stop offset="1" stop-color="#1699B4"/>
    </linearGradient>
    <linearGradient id="c" x1="57.968" y1="51.134" x2=".056" y2="51.134" gradientUnits="userSpaceOnUse">
      <stop offset=".007" stop-color="#1ACEC4"/>
      <stop offset="1" stop-color="#1699B4"/>
    </linearGradient>
  </defs>
</svg>
