<?xml version="1.0" encoding="UTF-8"?>
<svg id="Layer_2" data-name="Layer 2" xmlns="http://www.w3.org/2000/svg" viewBox="0 0 996.99 240">
  <g id="Layer_1-2" data-name="Layer 1">
    <g>
      <g>
        <path d="m.03,217.29c5.62-14,13.15-25.21,22.91-34.95,15.54-15.49,34.84-18.4,55.5-16.59,5.55.48,11.06,1.49,16.6,2.02,12.22,1.16,24.18-.34,35.86-4.07,1.97-.64,3.99-1.14,6.43-1.83,1.08,6.79-1.46,11.64-5.96,15.68-7.33,6.61-16.6,8.57-25.81,10.61-2.47.54-6.48-.09-5.45,3.9.59,2.27,3.76,5.45,5.81,5.48,7.24.13,14.65-.17,21.71-1.68,31.49-6.74,56.18-24.04,75.15-49.87.9-1.21,1.91-2.32,3.15-3.79,3.53,5.96,3.17,11.84,1.77,17.7-3.2,13.6-11.53,24.21-20.52,34.33-20.79,23.39-45.35,40.4-77.16,44.63-24.72,3.29-48.69-.81-72.16-8.25-12.54-3.98-24.87-8.72-37.86-13.31h.03Z" fill="#4f1964" stroke-width="0"/>
        <path d="m107.9,92.52c-6.16,0-12.31.22-18.47-.06-6.75-.3-10.5-4.14-11.08-10.91-1.1-12.86-2.14-25.73-3.13-38.59-.46-6.08,3.53-11.16,9.25-12.07,6-.95,11.1,2.3,12.44,8.47.78,3.54.87,7.26,1.01,10.91.14,3.57,1.49,5.1,5.3,4.95,6.71-.27,13.47,0,20.2-.09,4.02-.06,7.1,1.35,7.24,5.61.15,4.54-3.01,6.32-7.22,6.37-6.35.06-12.71-.11-19.05.2-1.57.08-3.11,1.6-4.65,2.46,1.47.74,2.93,2.08,4.42,2.13,7.5.22,15,.16,22.52.08,5.44-.06,9.67,1.91,12.62,6.61,8.49,13.54,17.22,26.95,25.36,40.68,1.47,2.48,1.77,6.92.58,9.5-2.78,5.94-10.37,5.27-14.3-1.02-6.32-10.12-12.49-20.34-18.47-30.66-1.88-3.23-4.04-4.67-7.82-4.5-5.56.27-11.16.07-16.75.07v-.14h0Z" fill="#4f1964" stroke-width="0"/>
        <path d="m68.57,58.07c1.94,5.42,1.44,9.39-3.06,13.84-12.74,12.63-15.46,28.27-9.1,44.72,6,15.48,18.24,24.32,34.71,25.6,17.92,1.4,31.56-6.34,40.36-22.24.84-1.49,1.59-3.01,2.44-4.63,7.14,9.2,7.2,9.5-.09,18.11-14,16.51-32.09,21.63-52.46,16.52-19.3-4.82-31.77-18.05-36.07-37.42-4.56-20.52,1.9-37.98,18.29-51.45.89-.73,1.85-1.39,2.82-2.02.62-.41,1.35-.66,2.14-1.04,0,0,.02,0,.02,0Z" fill="#4f1964" stroke-width="0"/>
        <path d="m133.82,185.51c19.35-10.42,34.91-24.94,47.34-42.99,5.42,7.01,4.36,17.93-2.04,23.09-13.29,10.7-28.93,16.1-45.3,19.89h0Z" fill="#4f1964" stroke-width="0"/>
        <path d="m87.86,0c7.27.11,12.56,5.6,12.43,12.93-.13,7.35-5.5,12.62-12.86,12.62s-12.92-5.78-12.72-13.33C74.9,4.97,80.35-.1,87.86,0Z" fill="#4f1964" stroke-width="0"/>
      </g>
      <g>
        <path d="m247.04,107.37v-47.36h15.4c5.84,0,9.64.24,11.41.71,2.72.71,5,2.26,6.84,4.65,1.83,2.36,2.76,5.44,2.76,9.21,0,2.9-.53,5.35-1.58,7.34s-2.41,3.54-4.05,4.69c-1.61,1.12-3.28,1.86-4.97,2.23-2.29.45-5.61.68-9.95.68h-6.25v17.87h-9.6v-.02h0Zm9.6-39.36v13.44h5.25c3.78,0,6.31-.25,7.59-.74s2.27-1.27,2.99-2.32c.73-1.06,1.1-2.29,1.1-3.68,0-1.72-.51-3.14-1.53-4.27-1.02-1.12-2.31-1.82-3.86-2.1-1.15-.21-3.44-.33-6.91-.33h-4.64,0Zm34.61-8.01h9.6v25.65c0,4.07.12,6.72.36,7.92.4,1.94,1.38,3.5,2.91,4.69,1.56,1.16,3.67,1.74,6.35,1.74s4.77-.55,6.17-1.65c1.38-1.12,2.22-2.49,2.5-4.1s.42-4.3.42-8.04v-26.21h9.6v24.88c0,5.69-.26,9.7-.78,12.06s-1.48,4.32-2.89,5.95c-1.38,1.61-3.24,2.9-5.57,3.88-2.33.94-5.38,1.42-9.14,1.42-4.53,0-7.98-.51-10.34-1.56-2.33-1.05-4.18-2.41-5.54-4.07-1.36-1.68-2.26-3.44-2.69-5.26-.62-2.71-.93-6.72-.93-12.02v-25.27h-.02Zm48.03,47.38v-47.38h15.39c5.84,0,9.64.24,11.41.71,2.73.71,5,2.26,6.84,4.65,1.83,2.36,2.76,5.44,2.76,9.21,0,2.9-.53,5.35-1.58,7.34-1.06,1.98-2.41,3.54-4.05,4.69-1.61,1.12-3.28,1.86-4.97,2.23-2.29.45-5.61.68-9.95.68h-6.25v17.87h-9.6v-.02h0v.02Zm9.61-39.35v13.44h5.25c3.78,0,6.31-.25,7.59-.74s2.27-1.27,2.99-2.32c.73-1.06,1.1-2.29,1.1-3.68,0-1.72-.5-3.14-1.53-4.27-1.02-1.12-2.31-1.82-3.86-2.1-1.15-.21-3.44-.33-6.91-.33h-4.64,0Zm34.71,39.36v-47.39h20.19c5.08,0,8.76.43,11.06,1.29,2.32.84,4.16,2.35,5.54,4.52s2.07,4.66,2.07,7.46c0,3.55-1.05,6.5-3.14,8.82-2.09,2.31-5.23,3.77-9.4,4.36,2.07,1.21,3.78,2.54,5.12,3.98,1.36,1.44,3.19,4.01,5.48,7.69l5.8,9.24h-11.48l-6.94-10.31c-2.46-3.68-4.15-5.99-5.06-6.95-.91-.97-1.87-1.62-2.89-1.97-1.02-.37-2.62-.55-4.83-.55h-1.94v19.77h-9.6v.05Zm9.6-27.33h7.1c4.6,0,7.48-.19,8.62-.59,1.15-.38,2.04-1.06,2.69-2.01s.97-2.13.97-3.55c0-1.59-.43-2.88-1.3-3.84-.84-.99-2.04-1.61-3.59-1.87-.78-.11-3.11-.16-7-.16h-7.48v12.02h0Zm38.61,27.34v-47.02h9.6v39h23.86v7.98h-33.46v.05Zm40.32,0v-47.4h35.23v8.01h-25.64v10.5h23.86v7.98h-23.86v12.89h26.54v7.98h-36.13v.05Zm74.87,0l-16.98-47.36h10.4l12.03,35.05,11.63-35.05h10.18l-17.01,47.36h-10.25,0Zm32.15,0v-47.4h35.23v8.01h-25.63v10.5h23.86v7.98h-23.86v12.89h26.54v7.98h-36.14v.05Zm41.85-15.4l9.34-.9c.57,3.12,1.69,5.42,3.41,6.88,1.73,1.47,4.05,2.2,6.96,2.2,3.09,0,5.41-.64,6.96-1.94,1.58-1.32,2.36-2.84,2.36-4.59,0-1.12-.34-2.07-1.01-2.84-.65-.8-1.8-1.48-3.44-2.07-1.12-.38-3.68-1.08-7.69-2.07-5.14-1.27-8.75-2.83-10.83-4.69-2.91-2.6-4.38-5.78-4.38-9.53,0-2.41.68-4.66,2.04-6.75,1.38-2.11,3.36-3.72,5.94-4.81,2.59-1.1,5.72-1.65,9.37-1.65,5.96,0,10.44,1.31,13.45,3.91,3.03,2.6,4.62,6.08,4.76,10.43l-9.6.42c-.41-2.44-1.3-4.18-2.66-5.24-1.35-1.08-3.35-1.61-6.06-1.61s-4.97.58-6.54,1.71c-1.02.73-1.53,1.71-1.53,2.94,0,1.12.48,2.07,1.43,2.88,1.21,1.02,4.15,2.07,8.82,3.17,4.66,1.1,8.12,2.24,10.34,3.43,2.24,1.16,4,2.77,5.25,4.81,1.27,2.02,1.91,4.53,1.91,7.53,0,2.71-.75,5.25-2.27,7.63-1.51,2.36-3.65,4.14-6.42,5.3-2.77,1.14-6.21,1.71-10.34,1.71-6,0-10.62-1.37-13.84-4.13-3.22-2.79-5.14-6.82-5.76-12.11v-.02h.02Zm57.4,15.41v-39.36h-14.1v-8.01h37.75v8.01h-14.06v39.36h-9.59Zm48.22,0v-47.41h14.36l8.62,32.31,8.52-32.31h14.39v47.36h-8.9v-37.29l-9.43,37.29h-9.23l-9.4-37.29v37.29h-8.91v.05Zm55.13,0v-47.41h9.59v47.36h-9.59v.05Zm16.33-15.4l9.34-.9c.57,3.12,1.69,5.42,3.41,6.88,1.73,1.47,4.05,2.2,6.96,2.2,3.09,0,5.41-.64,6.96-1.94,1.58-1.32,2.36-2.84,2.36-4.59,0-1.12-.34-2.07-1.01-2.84-.64-.8-1.8-1.48-3.44-2.07-1.12-.38-3.68-1.08-7.69-2.07-5.14-1.27-8.75-2.83-10.83-4.69-2.91-2.6-4.38-5.78-4.38-9.53,0-2.41.68-4.66,2.04-6.75,1.38-2.11,3.35-3.72,5.94-4.81,2.59-1.1,5.72-1.65,9.37-1.65,5.96,0,10.44,1.31,13.45,3.91,3.03,2.6,4.62,6.08,4.76,10.43l-9.6.42c-.4-2.44-1.3-4.18-2.66-5.24-1.35-1.08-3.36-1.61-6.06-1.61s-4.97.58-6.55,1.71c-1.02.73-1.53,1.71-1.53,2.94,0,1.12.48,2.07,1.43,2.88,1.21,1.02,4.15,2.07,8.81,3.17,4.67,1.1,8.12,2.24,10.34,3.43,2.25,1.16,4,2.77,5.25,4.81,1.27,2.02,1.91,4.53,1.91,7.53,0,2.71-.76,5.25-2.27,7.63-1.51,2.36-3.66,4.14-6.42,5.3-2.77,1.14-6.22,1.71-10.34,1.71-6,0-10.62-1.37-13.83-4.13-3.22-2.79-5.14-6.82-5.76-12.11v-.02h.03Zm44.29,0l9.34-.9c.57,3.12,1.69,5.42,3.4,6.88,1.73,1.47,4.05,2.2,6.96,2.2,3.09,0,5.41-.64,6.96-1.94,1.58-1.32,2.36-2.84,2.36-4.59,0-1.12-.34-2.07-1.01-2.84-.64-.8-1.8-1.48-3.44-2.07-1.12-.38-3.68-1.08-7.69-2.07-5.14-1.27-8.75-2.83-10.83-4.69-2.91-2.6-4.37-5.78-4.37-9.53,0-2.41.68-4.66,2.04-6.75,1.38-2.11,3.36-3.72,5.94-4.81,2.59-1.1,5.72-1.65,9.37-1.65,5.96,0,10.44,1.31,13.45,3.91,3.03,2.6,4.62,6.08,4.76,10.43l-9.6.42c-.4-2.44-1.3-4.18-2.66-5.24-1.35-1.08-3.36-1.61-6.06-1.61s-4.97.58-6.54,1.71c-1.02.73-1.53,1.71-1.53,2.94,0,1.12.48,2.07,1.43,2.88,1.21,1.02,4.15,2.07,8.82,3.17s8.12,2.24,10.34,3.43c2.25,1.16,4,2.77,5.25,4.81,1.27,2.02,1.91,4.53,1.91,7.53,0,2.71-.76,5.25-2.27,7.63-1.51,2.36-3.66,4.14-6.42,5.3-2.77,1.14-6.22,1.71-10.34,1.71-6,0-10.62-1.37-13.84-4.13-3.22-2.79-5.14-6.82-5.76-12.11v-.02h.03Zm46.42,15.41v-47.42h9.6v47.36h-9.6v.05Zm16.82-23.38c0-4.82.72-8.88,2.17-12.15,1.08-2.41,2.56-4.57,4.41-6.5,1.88-1.91,3.93-3.33,6.16-4.27,2.96-1.25,6.38-1.87,10.24-1.87,7,0,12.6,2.16,16.78,6.5,4.21,4.32,6.32,10.35,6.32,18.07s-2.08,13.63-6.26,17.97c-4.17,4.31-9.75,6.47-16.72,6.47s-12.68-2.14-16.86-6.43c-4.17-4.31-6.26-10.23-6.26-17.77h.02,0Zm9.89-.35c0,5.36,1.25,9.44,3.73,12.21,2.49,2.76,5.64,4.13,9.46,4.13s6.95-1.37,9.4-4.1c2.46-2.76,3.7-6.88,3.7-12.38s-1.2-9.47-3.59-12.15c-2.37-2.67-5.54-4.01-9.5-4.01s-7.15,1.36-9.56,4.07c-2.42,2.69-3.63,6.76-3.63,12.21v.02h0Zm43.81,23.72v-47.41h9.34l19.44,31.62v-31.62h8.9v47.36h-9.63l-19.16-30.88v30.88h-8.9v.05Z" stroke-width="0"/>
        <path d="m247.04,180.18v-33.15h4.37v29.24h16.27v3.91h-20.64Zm25.97,0v-33.15h23.89v3.91h-19.52v10.15h18.28v3.89h-18.28v11.29h20.29v3.91h-24.66,0Zm27.07,0l12.69-33.15h4.71l13.53,33.15h-4.98l-3.85-10.04h-13.82l-3.63,10.04h-4.65Zm9.54-13.61h11.2l-3.45-9.18c-1.05-2.79-1.83-5.08-2.35-6.88-.42,2.13-1.02,4.24-1.79,6.33l-3.63,9.72h0Zm30.9,13.63l-12.81-33.15h4.74l8.59,24.08c.69,1.93,1.27,3.75,1.73,5.43.51-1.81,1.1-3.62,1.79-5.43l8.92-24.08h4.46l-12.94,33.15h-4.49Zm21.44,0v-33.15h23.89v3.91h-19.52v10.15h18.28v3.89h-18.28v11.29h20.29v3.91h-24.66,0Zm43.51,0v-33.15h4.49l17.36,26.03v-26.03h4.2v33.15h-4.49l-17.36-26.05v26.05h-4.2Zm32.08-16.15c0-5.51,1.47-9.81,4.42-12.92,2.95-3.11,6.74-4.68,11.41-4.68,3.05,0,5.8.73,8.25,2.19,2.46,1.47,4.31,3.51,5.59,6.13,1.29,2.61,1.94,5.57,1.94,8.9s-.68,6.38-2.03,9.02c-1.35,2.66-3.27,4.67-5.74,6.04-2.48,1.36-5.16,2.03-8.03,2.03-3.11,0-5.89-.75-8.35-2.26-2.45-1.51-4.31-3.56-5.57-6.17-1.26-2.6-1.9-5.37-1.9-8.27h0Zm4.52.07c0,3.99,1.07,7.15,3.21,9.45,2.14,2.3,4.84,3.44,8.07,3.44s5.99-1.16,8.12-3.49c2.13-2.32,3.21-5.62,3.21-9.88,0-2.7-.46-5.05-1.37-7.05-.9-2.02-2.24-3.58-3.99-4.68-1.74-1.11-3.71-1.68-5.88-1.68-3.09,0-5.76,1.07-8,3.22-2.23,2.13-3.33,5.69-3.33,10.67h-.02Zm44.28-.09c0-5.51,1.47-9.81,4.42-12.92,2.95-3.11,6.74-4.68,11.41-4.68,3.05,0,5.8.73,8.25,2.19,2.45,1.47,4.31,3.51,5.59,6.13,1.29,2.61,1.94,5.57,1.94,8.9s-.68,6.38-2.03,9.02c-1.35,2.66-3.27,4.67-5.74,6.04-2.48,1.36-5.16,2.03-8.03,2.03-3.11,0-5.89-.75-8.35-2.26-2.45-1.51-4.31-3.56-5.57-6.17-1.26-2.6-1.89-5.37-1.89-8.27h0Zm4.52.07c0,3.99,1.07,7.15,3.21,9.45,2.14,2.3,4.84,3.44,8.07,3.44s5.99-1.16,8.12-3.49c2.13-2.32,3.21-5.62,3.21-9.88,0-2.7-.46-5.05-1.37-7.05-.9-2.02-2.24-3.58-3.99-4.68-1.74-1.11-3.71-1.68-5.88-1.68-3.1,0-5.76,1.07-8,3.22-2.23,2.13-3.33,5.69-3.33,10.67h-.02Zm32.71,16.06v-33.15h4.49l17.36,26.03v-26.03h4.2v33.15h-4.49l-17.36-26.05v26.05h-4.2Zm33.5,0v-33.15h23.89v3.91h-19.52v10.15h18.28v3.89h-18.28v11.29h20.29v3.91h-24.66Zm43.37,0v-33.15h12.4c2.53,0,4.54.34,6.06,1.02,1.54.66,2.73,1.69,3.58,3.1.87,1.38,1.31,2.84,1.31,4.36,0,1.42-.38,2.76-1.15,4-.77,1.26-1.92,2.26-3.47,3.03,2,.6,3.54,1.58,4.6,3.01,1.08,1.42,1.62,3.09,1.62,5.02,0,1.56-.33,3-.99,4.34-.64,1.33-1.45,2.35-2.41,3.07-.96.72-2.17,1.27-3.63,1.65-1.44.37-3.22.54-5.31.54h-12.62Zm4.37-19.2h7.15c1.94,0,3.33-.13,4.17-.38,1.11-.34,1.94-.88,2.5-1.65.58-.77.85-1.73.85-2.89,0-1.1-.27-2.07-.8-2.89-.53-.85-1.28-1.41-2.25-1.71-.97-.32-2.65-.48-5.02-.48h-6.61v10.02h0Zm0,15.31h8.23c1.41,0,2.4-.05,2.98-.16,1.01-.18,1.84-.49,2.53-.91.68-.42,1.24-1.04,1.67-1.83.43-.82.65-1.75.65-2.8,0-1.24-.32-2.31-.94-3.22-.63-.92-1.51-1.57-2.64-1.92-1.11-.38-2.72-.57-4.82-.57h-7.65v11.4h0Zm26.7,3.93v-33.15h23.89v3.91h-19.52v10.15h18.28v3.89h-18.28v11.29h20.29v3.91h-24.66Zm30.84,0v-33.15h4.37v13.61h17.18v-13.61h4.37v33.15h-4.37v-15.63h-17.18v15.63h-4.37Zm33.97,0v-33.15h4.37v33.15h-4.37Zm12.07,0v-33.15h4.49l17.36,26.03v-26.03h4.2v33.15h-4.49l-17.36-26.05v26.05h-4.2Zm33.41,0v-33.15h11.38c2.57,0,4.53.16,5.88.48,1.9.44,3.51,1.23,4.85,2.37,1.74,1.47,3.05,3.37,3.9,5.68.87,2.3,1.31,4.92,1.31,7.88,0,2.52-.29,4.75-.88,6.7s-1.34,3.55-2.25,4.84c-.92,1.26-1.92,2.27-3.02,3.01-1.09.72-2.39,1.27-3.95,1.65-1.54.38-3.3.57-5.3.57h-11.92v-.02Zm4.37-3.93h7.05c2.18,0,3.88-.2,5.12-.61,1.25-.4,2.24-.98,2.98-1.72,1.04-1.04,1.84-2.44,2.41-4.19.59-1.77.88-3.89.88-6.4,0-3.47-.58-6.13-1.71-7.98-1.13-1.87-2.5-3.11-4.12-3.76-1.17-.45-3.05-.68-5.66-.68h-6.94v25.33h0Z" stroke-width="0"/>
      </g>
    </g>
  </g>
</svg>