<?xml version="1.0" encoding="UTF-8"?>
<svg id="_Шар_1" data-name="Шар 1" xmlns="http://www.w3.org/2000/svg" viewBox="0 0 150 150">
  <defs>
    <style>
      .cls-1 {
        fill: #fff;
        stroke-width: 0px;
      }
    </style>
  </defs>
  <g>
    <path class="cls-1" d="m92.43,102.11c0,3.17-.92,6.11-2.47,8.61l7.85,7.85c3.47-4.57,5.54-10.28,5.54-16.46s-2.06-11.89-5.54-16.46l-7.85,7.85c1.56,2.5,2.47,5.45,2.47,8.61Z"/>
    <path class="cls-1" d="m59.76,102.11c0-3.16.91-6.11,2.47-8.61l-7.85-7.85c-3.47,4.57-5.54,10.28-5.54,16.46s2.06,11.89,5.54,16.46l7.85-7.85c-1.56-2.5-2.47-5.45-2.47-8.61Z"/>
    <path class="cls-1" d="m84.71,115.97c-2.5,1.56-5.45,2.47-8.61,2.47s-6.11-.91-8.61-2.47l-7.85,7.85c4.57,3.47,10.28,5.54,16.46,5.54s11.89-2.06,16.46-5.54l-7.85-7.85Z"/>
    <path class="cls-1" d="m67.48,88.24c2.5-1.56,5.45-2.47,8.61-2.47s6.11.91,8.61,2.47l7.85-7.85c-4.57-3.47-10.28-5.54-16.46-5.54s-11.89,2.06-16.46,5.54l7.85,7.85Z"/>
  </g>
  <path class="cls-1" d="m45.58,112.69c0,12.26-11.13,16.47-20,16.47-15.42,0-21.73-8.72-22.94-17.82h10.83c1.43,5.19,4.59,7.82,12.03,7.82,6.09,0,9.25-2.26,9.25-6.02s-3.69-4.44-12.94-6.47c-9.4-1.96-17.82-5.04-17.82-15.42,0-11.05,9.85-16.54,19.85-16.54,14.14,0,20,7.6,21.21,16.32h-10.9c-1.13-3.69-3.76-6.32-10.23-6.32s-9.1,2.71-9.1,6.09c0,3.08,2.63,3.84,9.55,5.34,14.06,3.01,21.21,6.09,21.21,16.54Z"/>
  <path class="cls-1" d="m148.39,112.69c0,12.26-11.13,16.47-20,16.47-15.42,0-21.73-8.72-22.94-17.82h10.83c1.43,5.19,4.59,7.82,12.03,7.82,6.09,0,9.25-2.26,9.25-6.02s-3.69-4.44-12.94-6.47c-9.4-1.96-17.82-5.04-17.82-15.42,0-11.05,9.85-16.54,19.85-16.54,14.14,0,20,7.6,21.21,16.32h-10.9c-1.13-3.69-3.76-6.32-10.23-6.32s-9.1,2.71-9.1,6.09c0,3.08,2.63,3.84,9.55,5.34,14.06,3.01,21.21,6.09,21.21,16.54Z"/>
  <path class="cls-1" d="m0,42.46c0-12.38,9.2-21.82,21.82-21.82,10.34,0,18.21,6.49,20.5,15.63h-10.94c-1.68-3.67-5.11-5.89-9.56-5.89-6.97,0-11.48,5.05-11.48,12.08s4.51,12.08,11.48,12.08c4.45,0,7.88-2.22,9.56-5.89h10.94c-2.28,9.14-10.16,15.63-20.5,15.63-12.62,0-21.82-9.44-21.82-21.82Z"/>
  <path class="cls-1" d="m70.22,63.5l-7.69-13.1-7.45,13.1h-12.14l13.47-21.88-12.81-20.2h12.14l7.09,12.08,7.09-12.08h12.14l-13.04,20.98,13.35,21.1h-12.14Z"/>
  <path class="cls-1" d="m88.08,21.42h10.22v42.08h-10.22V21.42Z"/>
  <path class="cls-1" d="m114.23,63.5h35.77v-9.74h-6.01V21.42h-28.07l-4.45,28.07c-.36,2.16-.84,3.49-1.56,4.27h-5.89v9.74h10.22Zm7.27-12.98l3.06-19.36h9.2v22.6h-12.92c.24-1.02.48-2.1.66-3.25Z"/>
</svg>